<svg id="Layer_1" data-name="Layer 1" xmlns="http://www.w3.org/2000/svg" viewBox="0 0 64 64"><defs><style>.cls-1{fill:#d9ebf4;}.cls-2{fill:#c6e2f4;}.cls-3{fill:none;stroke:#041256;stroke-linecap:round;stroke-linejoin:round;stroke-width:2px;}.cls-4{fill:#789b53;}.cls-5{fill:#a5c67f;}.cls-6{fill:#698943;}.cls-7{fill:#4c7a34;}.cls-8{fill:#82543a;}.cls-9{fill:#9e6946;}.cls-10{fill:#6d4632;}.cls-11{fill:#42ce99;}.cls-12{fill:#ffa022;}.cls-13{fill:#fcc947;}.cls-14{fill:#f98e0d;}.cls-15{fill:#0ff7ca;}.cls-16{fill:#ed810c;}.cls-17{fill:#f7780f;}.cls-18{fill:#e2660a;}.cls-19{fill:#efe5d8;}.cls-20{fill:#af764f;}.cls-21{fill:#cc9466;}.cls-22{fill:#041256;}</style></defs><title>dollar, finance, money, growth, business, plant</title><path class="cls-1" d="M10.65,18h2.43a.76.76,0,0,0,0-1.52H11.87a.46.46,0,0,1-.46-.46A.46.46,0,0,0,11,15.6H8.53a.76.76,0,0,0,0,1.52H9.74a.46.46,0,0,1,.46.46A.46.46,0,0,0,10.65,18Z"/><path class="cls-1" d="M8.69,19.22H7.28a.26.26,0,0,0-.26.26.26.26,0,0,1-.26.26H6a.44.44,0,1,0,0,.88H7.45a.26.26,0,0,0,.26-.26A.26.26,0,0,1,8,20.1h.7a.44.44,0,1,0,0-.88Z"/><path class="cls-1" d="M13.4,11.52H12a.26.26,0,0,0-.26.26.26.26,0,0,1-.26.26h-.7a.44.44,0,0,0,0,.88h1.41a.26.26,0,0,0,.26-.26.26.26,0,0,1,.26-.26h.7a.44.44,0,0,0,0-.88Z"/><circle class="cls-1" cx="10.8" cy="26.13" r="0.63"/><circle class="cls-1" cx="10.81" cy="21.08" r="0.61"/><circle class="cls-1" cx="13.84" cy="22.33" r="0.98"/><circle class="cls-1" cx="14.43" cy="14.71" r="0.32"/><circle class="cls-1" cx="4.44" cy="22.33" r="0.39"/><circle class="cls-1" cx="7.37" cy="23.54" r="1.02"/><circle class="cls-1" cx="3.4" cy="19.57" r="0.35"/><path class="cls-1" d="M51.15,20.85h0a.5.5,0,0,1,.5-.5h2.67a.83.83,0,0,1,.83.83h0a.83.83,0,0,1-.83.83H53a.5.5,0,0,0-.5.5h0a.5.5,0,0,1-.5.5H49.32a.83.83,0,0,1-.83-.83h0a.83.83,0,0,1,.83-.83h1.33A.5.5,0,0,0,51.15,20.85Z"/><path class="cls-1" d="M56,24.62h0a.29.29,0,0,0-.29-.29H54.15a.48.48,0,0,0-.48.48h0a.48.48,0,0,0,.48.48h.77a.29.29,0,0,1,.29.29h0a.29.29,0,0,0,.29.29h1.55a.48.48,0,0,0,.48-.48h0a.48.48,0,0,0-.48-.48h-.77A.29.29,0,0,1,56,24.62Z"/><circle class="cls-1" cx="52.69" cy="32.53" r="0.7"/><circle class="cls-1" cx="51.81" cy="26.37" r="0.67"/><circle class="cls-1" cx="48.48" cy="27.74" r="1.08"/><circle class="cls-1" cx="47.83" cy="19.38" r="0.35"/><circle class="cls-1" cx="58.81" cy="27.74" r="0.43"/><circle class="cls-1" cx="55.6" cy="29.08" r="1.12"/><circle class="cls-1" cx="59.96" cy="24.72" r="0.39"/><path class="cls-2" d="M3,61V33.72a.89.89,0,0,1,.89-.89h.93a.89.89,0,0,1,.89.89V36a.89.89,0,0,0,.89.89h3a.89.89,0,0,1,.89.89V48.15a.89.89,0,0,0,.89.89h1.85a.89.89,0,0,1,.89.89v6.54a.89.89,0,0,0,.89.89h.9a.89.89,0,0,0,.89-.89V55.33a.89.89,0,0,1,.89-.89h.81a.89.89,0,0,0,.89-.89V52a.89.89,0,0,1,.89-.89H25.1a.89.89,0,0,0,.89-.89v-.91a.89.89,0,0,1,.89-.89h15.4a.89.89,0,0,1,.63.26l4.14,4.14a.89.89,0,0,0,.63.26h1.24a.89.89,0,0,1,.89.89v3a.89.89,0,0,0,.89.89h.51a.89.89,0,0,0,.89-.89v-.52a.89.89,0,0,1,.89-.89h.65a.89.89,0,0,0,.89-.89.89.89,0,0,1,.89-.89h4.63a.89.89,0,0,1,.89.89V61Z"/><line class="cls-3" x1="3" y1="61" x2="61" y2="61"/><path class="cls-4" d="M39.88,30.21h6.19a1,1,0,0,1,.95.95v2.31a6.66,6.66,0,0,1-6.66,6.66H35a1,1,0,0,0-1,1v5.72a2,2,0,0,1-2,2h0a2,2,0,0,1-2-2V40.14A9.92,9.92,0,0,1,39.88,30.21Z"/><path class="cls-5" d="M39.88,30.21h6.19a1,1,0,0,1,.95.95v1.12a.93.93,0,0,0-.3-.06H40.52a9.92,9.92,0,0,0-9.92,9.92v6.19A2,2,0,0,1,30,46.85V40.14A9.92,9.92,0,0,1,39.88,30.21Z"/><path class="cls-6" d="M41.21,34.21H47a6.66,6.66,0,0,1-6.62,5.92H35a1,1,0,0,0-1,1v5.72a2,2,0,0,1-2.75,1.9V44.13A9.92,9.92,0,0,1,41.21,34.21Z"/><path class="cls-7" d="M34,43.4v3.28a2.21,2.21,0,0,1-1.27,2,1.92,1.92,0,0,1-1.49,0V44.13L32,43.4Z"/><path class="cls-7" d="M41.24,39.4a1.39,1.39,0,0,0-1.3-1.92H36a9.91,9.91,0,0,0-2.41.31,9.9,9.9,0,0,1,7.62-3.57H47a6.64,6.64,0,0,1-6.09,5.87A7.24,7.24,0,0,0,41.24,39.4Z"/><path class="cls-3" d="M39.88,30.21h6.19a1,1,0,0,1,.95.95v2.31a6.66,6.66,0,0,1-6.66,6.66H35a1,1,0,0,0-1,1v5.72a2,2,0,0,1-2,2h0a2,2,0,0,1-2-2V40.14A9.92,9.92,0,0,1,39.88,30.21Z"/><path class="cls-8" d="M19.72,46.22l1.22,11.85a1.67,1.67,0,0,0,1.13,1.42A32.34,32.34,0,0,0,32,61a32.34,32.34,0,0,0,9.94-1.51,1.67,1.67,0,0,0,1.13-1.42l1.22-11.85Z"/><path class="cls-9" d="M20.59,54.67l.35,3.4a1.69,1.69,0,0,0,1.17,1.44c.43.14.88.25,1.32.37l-.34-3.34A2.08,2.08,0,0,0,21,54.67Z"/><path class="cls-9" d="M19.72,46.22l.76,7.39h0a2.08,2.08,0,0,0,2.07-2.29l-.31-3H44.07l.21-2.06Z"/><path class="cls-10" d="M41.94,59.49a1.67,1.67,0,0,0,1.13-1.42l1.08-10.48-21.71,2.6,5.66,2.37A6.36,6.36,0,0,1,32,58.42V61A32.33,32.33,0,0,0,41.94,59.49Z"/><path class="cls-11" d="M42.49,47.79l-1,9.6a1.67,1.67,0,0,1-1.13,1.42A31.88,31.88,0,0,1,32,60.26V61a32.34,32.34,0,0,0,9.94-1.51,1.67,1.67,0,0,0,1.13-1.42l1.08-10.48Z"/><path class="cls-3" d="M19.72,46.22l1.22,11.85a1.67,1.67,0,0,0,1.13,1.42A32.34,32.34,0,0,0,32,61a32.34,32.34,0,0,0,9.94-1.51,1.67,1.67,0,0,0,1.13-1.42l1.22-11.85Z"/><circle class="cls-12" cx="32" cy="19.14" r="16.14"/><path class="cls-13" d="M17.81,19.85A16.12,16.12,0,0,1,38.5,4.37,16.14,16.14,0,1,0,27.45,34.62,16.14,16.14,0,0,1,17.81,19.85Z"/><path class="cls-14" d="M43.41,7.73A16.14,16.14,0,0,1,20.59,30.56"/><path class="cls-15" d="M43.41,7.73l-.19.19a16.13,16.13,0,0,1-22,23.26A16.13,16.13,0,0,0,43.41,7.73Z"/><circle class="cls-16" cx="32" cy="19.14" r="11.07"/><path class="cls-14" d="M24.17,11.31a11.07,11.07,0,0,0,0,15.66L39.83,11.31A11.07,11.07,0,0,0,24.17,11.31Z"/><path class="cls-17" d="M25.61,12.76a11.06,11.06,0,0,1,14.07-1.3l.15-.15A11.07,11.07,0,1,0,24.17,27l.15-.15A11.06,11.06,0,0,1,25.61,12.76Z"/><path class="cls-13" d="M20.31,12.49A13.13,13.13,0,0,1,32,6.4a12.41,12.41,0,0,0-10.45,6.79.71.71,0,1,1-1.28-.62l0-.07Z"/><path class="cls-13" d="M19.66,16.7l-.18,0a.71.71,0,0,1-.51-.87c.06-.23.13-.46.2-.69a.71.71,0,1,1,1.36.42c-.06.21-.12.42-.18.63A.71.71,0,0,1,19.66,16.7Z"/><path class="cls-13" d="M19.26,19.85a.71.71,0,0,1-.71-.71c0-.25,0-.51,0-.76a.73.73,0,0,1,.75-.67.71.71,0,0,1,.67.75c0,.22,0,.45,0,.67A.71.71,0,0,1,19.26,19.85Z"/><path class="cls-12" d="M43.69,25.68A13.13,13.13,0,0,1,32,31.76,12.41,12.41,0,0,0,42.45,25a.71.71,0,1,1,1.28.62l0,.07Z"/><path class="cls-12" d="M44.34,21.47l.18,0a.71.71,0,0,1,.51.87c-.06.23-.13.46-.2.69a.71.71,0,1,1-1.36-.42c.06-.21.12-.42.18-.63A.71.71,0,0,1,44.34,21.47Z"/><path class="cls-12" d="M44.74,18.31a.71.71,0,0,1,.71.71c0,.25,0,.51,0,.76a.73.73,0,0,1-.75.67.71.71,0,0,1-.67-.75c0-.22,0-.45,0-.67A.71.71,0,0,1,44.74,18.31Z"/><circle class="cls-3" cx="32" cy="19.14" r="16.14"/><path class="cls-12" d="M31.55,17.87a1.39,1.39,0,0,1-1.4-1.2,1.32,1.32,0,0,1,1.25-1.43,1.39,1.39,0,0,1,1.38,1.38,1.27,1.27,0,0,0,1.47,1.19,1.33,1.33,0,0,0,1.08-1.41,3.85,3.85,0,0,0-2.19-3.32.71.71,0,0,1-.39-.65,1.32,1.32,0,0,0-1.06-1.32,1.28,1.28,0,0,0-1.49,1.26v.55c-2.29.81-3.61,3.67-1.6,6.39a3.07,3.07,0,0,0,2.78,1.11,1.32,1.32,0,1,1-.2,2.59,1.36,1.36,0,0,1-1-1.31,1.27,1.27,0,0,0-1.47-1.23,1.33,1.33,0,0,0-1.08,1.41A3.85,3.85,0,0,0,29.8,25.2a.71.71,0,0,1,.39.65,1.32,1.32,0,0,0,1.06,1.33,1.28,1.28,0,0,0,1.49-1.26v-.55a3.85,3.85,0,0,0-1.19-7.49Z"/><path class="cls-18" d="M32.73,18.22a1.39,1.39,0,0,1-1.4-1.2,1.32,1.32,0,0,1,1.25-1.43A1.39,1.39,0,0,1,34,17a1.28,1.28,0,0,0,1.47,1.19,1.33,1.33,0,0,0,1.08-1.41,3.85,3.85,0,0,0-2.19-3.32.71.71,0,0,1-.39-.65,1.32,1.32,0,0,0-1.06-1.32,1.27,1.27,0,0,0-1.49,1.26v.55c-2.29.81-3.61,3.67-1.6,6.39a3.07,3.07,0,0,0,2.78,1.11,1.31,1.31,0,1,1-.2,2.59,1.36,1.36,0,0,1-1-1.31,1.27,1.27,0,0,0-1.47-1.23,1.33,1.33,0,0,0-1.08,1.41A3.85,3.85,0,0,0,31,25.55a.71.71,0,0,1,.39.65,1.32,1.32,0,0,0,1.06,1.32,1.28,1.28,0,0,0,1.49-1.26v-.55a3.85,3.85,0,0,0-1.19-7.49Z"/><path class="cls-19" d="M32.09,17.87a1.39,1.39,0,0,1-1.4-1.2,1.32,1.32,0,0,1,1.25-1.43,1.39,1.39,0,0,1,1.38,1.38,1.27,1.27,0,0,0,1.47,1.19,1.33,1.33,0,0,0,1.08-1.41,3.85,3.85,0,0,0-2.19-3.32.71.71,0,0,1-.39-.65,1.32,1.32,0,0,0-1.06-1.32,1.28,1.28,0,0,0-1.49,1.26v.55c-2.29.81-3.61,3.67-1.6,6.39a3.07,3.07,0,0,0,2.78,1.11A1.32,1.32,0,1,1,31.7,23a1.36,1.36,0,0,1-1-1.31,1.27,1.27,0,0,0-1.47-1.23,1.33,1.33,0,0,0-1.08,1.41,3.85,3.85,0,0,0,2.19,3.32.71.71,0,0,1,.39.65,1.32,1.32,0,0,0,1.06,1.33,1.28,1.28,0,0,0,1.49-1.26v-.55a3.85,3.85,0,0,0-1.19-7.49Z"/><path class="cls-4" d="M24.12,30.21H17.93a1,1,0,0,0-.95.95v2.31a6.66,6.66,0,0,0,6.66,6.66H29a1,1,0,0,1,1,1v5.72a2,2,0,0,0,2,2h0a2,2,0,0,0,2-2V40.14A9.92,9.92,0,0,0,24.12,30.21Z"/><path class="cls-5" d="M24.12,30.21H17.93a1,1,0,0,0-.95.95v1.12a.93.93,0,0,1,.3-.06h6.19a9.92,9.92,0,0,1,9.92,9.92v6.19A2,2,0,0,0,34,46.85V40.14A9.92,9.92,0,0,0,24.12,30.21Z"/><path class="cls-6" d="M22.79,34.21H17a6.66,6.66,0,0,0,6.62,5.92H29a1,1,0,0,1,1,1v5.72a2,2,0,0,0,2.75,1.9V44.13A9.92,9.92,0,0,0,22.79,34.21Z"/><path class="cls-7" d="M30,43.4v3.28a2.21,2.21,0,0,0,1.27,2,1.92,1.92,0,0,0,1.49,0V44.13L32,43.4Z"/><path class="cls-7" d="M22.76,39.4a1.39,1.39,0,0,1,1.3-1.92H28a9.91,9.91,0,0,1,2.41.31,9.9,9.9,0,0,0-7.62-3.57H17a6.64,6.64,0,0,0,6.09,5.87A7.24,7.24,0,0,1,22.76,39.4Z"/><path class="cls-3" d="M24.12,30.21H17.93a1,1,0,0,0-.95.95v2.31a6.66,6.66,0,0,0,6.66,6.66H29a1,1,0,0,1,1,1v5.72a2,2,0,0,0,2,2h0a2,2,0,0,0,2-2V40.14A9.92,9.92,0,0,0,24.12,30.21Z"/><path class="cls-20" d="M17.63,48.43A68.76,68.76,0,0,0,32,49.72a68.76,68.76,0,0,0,14.37-1.29V44A68.76,68.76,0,0,0,32,42.72,68.76,68.76,0,0,0,17.63,44Z"/><path class="cls-21" d="M46.37,44.3V44A68.76,68.76,0,0,0,32,42.72,68.76,68.76,0,0,0,17.63,44v4.42c.63.15,1.34.28,2.09.4v-2.9l.16,0c3.25.3,7.49.48,12.13.48s8.87-.18,12.12-.48a2.59,2.59,0,0,0,2.14-1.1A69.15,69.15,0,0,0,32,43.59c-2.31,0-4.51.08-6.55.23,2.58-.26,5.52-.41,8.64-.41A77.2,77.2,0,0,1,46.37,44.3Z"/><path class="cls-11" d="M44.78,43.69v2.19a2,2,0,0,1-1.65,2,75.92,75.92,0,0,1-12.72,1,75.48,75.48,0,0,1-12.78-1v.57A68.77,68.77,0,0,0,32,49.72a68.76,68.76,0,0,0,14.37-1.29V44C45.88,43.89,45.34,43.79,44.78,43.69Z"/><path class="cls-22" d="M32,42.72A69.15,69.15,0,0,0,17.73,44a2.59,2.59,0,0,0,2.14,1.1c3.25.3,7.49.48,12.13.48s8.87-.18,12.12-.48A2.59,2.59,0,0,0,46.27,44,69.15,69.15,0,0,0,32,42.72Z"/><path class="cls-3" d="M17.63,48.43A68.76,68.76,0,0,0,32,49.72a68.76,68.76,0,0,0,14.37-1.29V44A68.76,68.76,0,0,0,32,42.72,68.76,68.76,0,0,0,17.63,44Z"/><path class="cls-7" d="M32,44.14h0a2,2,0,0,1-2-2v-.55H34v.55A2,2,0,0,1,32,44.14Z"/><path class="cls-3" d="M34,41.55v.55a2,2,0,0,1-2,2h0a2,2,0,0,1-2-2v-.55"/></svg>